<svg width="59" height="47" viewBox="0 0 59 47" fill="none" xmlns="http://www.w3.org/2000/svg">
<path d="M18.5591 47C11.9792 47.0062 5.53642 45.1571 0 41.6734C0.959021 41.7824 1.92373 41.8364 2.88918 41.8351C8.34054 41.8436 13.6365 40.0563 17.926 36.7604C15.3992 36.7131 12.9507 35.8936 10.9227 34.4162C8.89465 32.9389 7.38851 30.8776 6.61481 28.5205C7.36456 28.6627 8.12644 28.7344 8.8901 28.7348C9.96837 28.735 11.0419 28.5946 12.0824 28.3175C9.34176 27.7753 6.877 26.3208 5.10625 24.2009C3.33551 22.0811 2.36782 19.4263 2.36737 16.6871C2.36737 16.6344 2.36737 16.5856 2.36737 16.5367C4.04789 17.4532 5.9279 17.9623 7.8503 18.0215C5.28679 16.3438 3.47268 13.7717 2.7776 10.8292C2.08251 7.88662 2.55877 4.79516 4.10932 2.18469C7.14675 5.8494 10.9367 8.84755 15.2332 10.9846C19.5297 13.1216 24.2368 14.3499 29.0492 14.5895C28.4365 12.0426 28.7002 9.36871 29.7993 6.98384C30.8984 4.59896 32.7712 2.63684 35.1264 1.40274C37.4816 0.168643 40.1871 -0.268238 42.822 0.16007C45.4568 0.588378 47.8733 1.85786 49.6955 3.77101C52.4015 3.24398 54.9963 2.27032 57.3693 0.891579C56.4653 3.63857 54.5742 5.97073 52.0475 7.45487C54.4476 7.17068 56.7908 6.53719 59 5.57535C57.3738 7.95801 55.3275 10.0379 52.9569 11.7176C52.9837 12.2251 52.9953 12.7363 52.9953 13.2513C52.9953 28.9228 40.8131 47 18.5437 47" fill="rgb(217, 217, 217)"/>
</svg>
